<svg width="79" height="77" viewBox="0 0 79 77" fill="none" xmlns="http://www.w3.org/2000/svg">
<mask id="path-1-outside-1_201_17" maskUnits="userSpaceOnUse" x="0" y="-0.834034" width="79" height="78" fill="black">
<rect fill="white" y="-0.834034" width="79" height="78"/>
<path fill-rule="evenodd" clip-rule="evenodd" d="M47.9814 8.76054C45.9769 9.56022 43.7898 9.99999 41.5 9.99999C35.4083 9.99999 30.0436 6.88745 26.9094 2.16597C12.3918 7.33941 2 21.2061 2 37.5C2 58.2107 18.7893 75 39.5 75C60.2107 75 77 58.2107 77 37.5C77 31.8354 75.744 26.4642 73.4954 21.6496C72.703 21.8777 71.8658 22 71 22C66.9055 22 63.4497 19.2658 62.3586 15.5236C61.2929 15.8337 60.1658 16 59 16C54.064 16 49.824 13.0198 47.9814 8.76054Z"/>
</mask>
<path fill-rule="evenodd" clip-rule="evenodd" d="M47.9814 8.76054C45.9769 9.56022 43.7898 9.99999 41.5 9.99999C35.4083 9.99999 30.0436 6.88745 26.9094 2.16597C12.3918 7.33941 2 21.2061 2 37.5C2 58.2107 18.7893 75 39.5 75C60.2107 75 77 58.2107 77 37.5C77 31.8354 75.744 26.4642 73.4954 21.6496C72.703 21.8777 71.8658 22 71 22C66.9055 22 63.4497 19.2658 62.3586 15.5236C61.2929 15.8337 60.1658 16 59 16C54.064 16 49.824 13.0198 47.9814 8.76054Z" fill="#EBC388"/>
<path d="M47.9814 8.76054L49.8169 7.96641C49.3872 6.97317 48.2454 6.5019 47.2403 6.90291L47.9814 8.76054ZM26.9094 2.16597L28.5757 1.05986C28.0676 0.294457 27.1034 -0.026373 26.238 0.282014L26.9094 2.16597ZM73.4954 21.6496L75.3075 20.8032C74.891 19.9115 73.8876 19.4553 72.9419 19.7277L73.4954 21.6496ZM62.3586 15.5236L64.2787 14.9638C63.9696 13.9038 62.8601 13.2948 61.7999 13.6033L62.3586 15.5236ZM41.5 12C44.0478 12 46.4861 11.5103 48.7224 10.6182L47.2403 6.90291C45.4676 7.6101 43.5318 7.99999 41.5 7.99999V12ZM25.2431 3.27207C28.7321 8.52809 34.7102 12 41.5 12V7.99999C36.1064 7.99999 31.355 5.24682 28.5757 1.05986L25.2431 3.27207ZM4 37.5C4 22.0783 13.8347 8.94843 27.5808 4.04992L26.238 0.282014C10.949 5.73039 0 20.334 0 37.5H4ZM39.5 73C19.8939 73 4 57.1061 4 37.5H0C0 59.3152 17.6848 77 39.5 77V73ZM75 37.5C75 57.1061 59.1061 73 39.5 73V77C61.3152 77 79 59.3152 79 37.5H75ZM71.6833 22.4959C73.8107 27.051 75 32.1339 75 37.5H79C79 31.537 77.6773 25.8773 75.3075 20.8032L71.6833 22.4959ZM71 24C72.0549 24 73.0784 23.8509 74.0488 23.5715L72.9419 19.7277C72.3277 19.9046 71.6767 20 71 20V24ZM60.4386 16.0834C61.7717 20.6559 65.9927 24 71 24V20C67.8183 20 65.1276 17.8757 64.2787 14.9638L60.4386 16.0834ZM59 18C60.3569 18 61.6719 17.8064 62.9174 17.444L61.7999 13.6033C60.9138 13.8611 59.9748 14 59 14V18ZM46.1458 9.55467C48.2938 14.5196 53.2382 18 59 18V14C54.8898 14 51.3543 11.5199 49.8169 7.96641L46.1458 9.55467Z" fill="#332818" mask="url(#path-1-outside-1_201_17)"/>
<circle cx="19.5" cy="22.5" r="6.5" fill="#332818"/>
<circle cx="15" cy="50" r="2" fill="#332818"/>
<circle cx="61" cy="27" r="2" fill="#332818"/>
<circle cx="43" cy="34" r="3" fill="#332818"/>
<circle cx="32" cy="50" r="4" fill="#332818"/>
<circle cx="66.5" cy="44.5" r="3.5" fill="#332818"/>
<circle cx="46" cy="64" r="6" fill="#332818"/>
</svg>
